# xmcd
# Track frame offsets:
# 150
# 22223
# 40197
# 55785
# 75025
# 94318
# 111420
# 129241
# 150471
# 170886
# 191450
# 213207
#
# Disc length: 3074 seconds
# Revision: 0
# Processed by: cddbd v1.5.1PL0 Copyright (c) Steve Scherf et al.
# Submitted via: VisiTrax 2.9.10.228 - For more info visit www.synapsa.com
#
DISCID=960c000c
DTITLE=James Taylor - October Road
DYEAR=1992
DGENRE=Country
TTITLE0=September Grass
TTITLE1=October Road
TTITLE2=On the 4th of July
TTITLE3=Whenever You're Ready
TTITLE4=Belfast to Boston
TTITLE5=Mean Old Man
TTITLE6=My Traveling Star
TTITLE7=Raised Up Family
TTITLE8=Carry Me on My Way
TTITLE9=Caroline I See You
TTITLE10=Baby Buffalo
TTITLE11=Have Yourself a Merry Little Christmas
EXTD=
EXTT0=
EXTT1=
EXTT2=
EXTT3=
EXTT4=
EXTT5=
EXTT6=
EXTT7=
EXTT8=
EXTT9=
EXTT10=
EXTT11=
PLAYORDER=
